<?xml version="1.0" encoding="UTF-8" standalone="no"?>
<!-- Created with Inkscape (http://www.inkscape.org/) -->

<svg
   xmlns:dc="http://purl.org/dc/elements/1.1/"
   xmlns:cc="http://creativecommons.org/ns#"
   xmlns:rdf="http://www.w3.org/1999/02/22-rdf-syntax-ns#"
   xmlns:svg="http://www.w3.org/2000/svg"
   xmlns="http://www.w3.org/2000/svg"
   version="1.0"
   width="1000.0001"
   height="1000"
   viewBox="0 0 800.00005 800"
   id="svg2">
  <defs
     id="defs14" />
  <metadata
     id="metadata4">
Created by potrace 1.9, written by Peter Selinger 2001-2010
<rdf:RDF>
  <cc:Work
     rdf:about="">
    <dc:format>image/svg+xml</dc:format>
    <dc:type
       rdf:resource="http://purl.org/dc/dcmitype/StillImage" />
    <dc:title></dc:title>
  </cc:Work>
</rdf:RDF>
</metadata>
  <g
     transform="scale(1.7505471,1.6855082)"
     id="g3132">
    <path
       d="m 107.65941,108.34922 c -16.037062,8.16982 -17.348268,29.85515 -2.21897,39.94135 15.1293,10.18706 35.40256,-0.90776 35.40256,-19.46636 0,-17.04568 -17.95343,-28.1405 -33.18359,-20.47499 z"
       id="path10"
       style="fill:#000000;fill-opacity:1;stroke:none" />
    <path
       d="m 232.6,62.609315 c -24.21429,0 -47.33252,4.632908 -68.55,13.05 13.01089,-3.754494 26.75466,-5.775 40.95,-5.775 82.5911,0 149.55,68.033405 149.55,151.949995 0,83.9166 -66.9589,151.95 -149.55,151.95 -82.5911,0 -149.55,-68.0334 -149.55,-151.95 0,-19.58419 3.65907,-38.30929 10.3,-55.5 -12.261973,24.81348 -19.175,52.74878 -19.175,82.3 0,102.73993 83.28507,186.025 186.025,186.025 102.73993,0 186.025,-83.28507 186.025,-186.025 0,-102.73992 -83.28507,-186.024995 -186.025,-186.024995 z"
       id="path3790-7"
       style="fill:#000000;fill-opacity:1;stroke:none" />
    <path
       d="m 136.05,310.93431 -39.6,-39.15 7.15,13.6 -72.3,67.2 -31.3,66.9 121.9,-115.75 z"
       id="path3813"
       style="fill:#000000;fill-opacity:1;stroke:none" />
    <g
       id="g4495">
      <path
         d="m 272.8,327.43431 36.4,-36.2 -5,13 152.8,170.4 -84.2,-53.4 -86.6,-98.2 z"
         id="path3815"
         style="fill:#000000;fill-opacity:1;stroke:none" />
    </g>
    <path
       d="M 274.1799,121.0565 309.61422,160.54351 305.1636,147.83639 450.95355,0 372.06274,41.551472 287.91716,127.55355 z"
       id="path3819"
       style="fill:#000000;fill-opacity:1;stroke:none" />
  </g>
</svg>
