<svg xmlns="http://www.w3.org/2000/svg" viewBox="0 0 1000 1000"><title>Duralumin</title><circle cx="521.25" cy="541.83" r="42.75"/><path d="M416.25,431.33l77.5-51c-11.42-.85-21-3-35.5-3.5l-178-285.5,144.5,306C421.53,405,417.85,413.36,416.25,431.33Z"/><path d="M538.75,401.33l57.5,63.5c3.14-11.06,2.22-21.45,1-31.5l224.5-213.5-254.5,181.5C558.28,400.73,548,400.24,538.75,401.33Z"/><path d="M603.25,475.33l50.5,72.5c1.76-8.41.83-19.36,0-31.5l234-220-260,185C619.61,479.08,611.41,476.72,603.25,475.33Z"/><path d="M420.25,588.83c-5.89,9.67-5.72,17-3.5,23.5l-214.5,175.5L433.47,656.11a40.36,40.36,0,0,1,27.26-4.63l15.53,2.85Z"/><path d="M137.25,689.83l225-179c-2.18-9.17-1.89-18.21,3-27l46,71L395,549.23a26,26,0,0,0-21.59,2.14Z"/><path d="M322.25,542.33c0-109.63,88.87-198.5,198.5-198.5s198.5,88.87,198.5,198.5A197.52,197.52,0,0,1,689.52,646.8a242.68,242.68,0,0,0,54.23-153.22C743.75,359,634.62,249.83,500,249.83S256.25,359,256.25,493.58c0,127.49,97.89,232,222.59,242.78C389.35,717.12,322.25,637.58,322.25,542.33Z"/></svg>