<?xml version="1.0" encoding="UTF-8" standalone="no"?>
<!-- Created with Inkscape (http://www.inkscape.org/) -->

<svg
   xmlns:dc="http://purl.org/dc/elements/1.1/"
   xmlns:cc="http://creativecommons.org/ns#"
   xmlns:rdf="http://www.w3.org/1999/02/22-rdf-syntax-ns#"
   xmlns:svg="http://www.w3.org/2000/svg"
   xmlns="http://www.w3.org/2000/svg"
   version="1.0"
   width="933.60162"
   height="1000"
   viewBox="0 0 746.88129 800"
   id="svg2986">
  <defs
     id="defs2998" />
  <metadata
     id="metadata2988">
Created by potrace 1.9, written by Peter Selinger 2001-2010
<rdf:RDF>
  <cc:Work
     rdf:about="">
    <dc:format>image/svg+xml</dc:format>
    <dc:type
       rdf:resource="http://purl.org/dc/dcmitype/StillImage" />
    <dc:title></dc:title>
  </cc:Work>
</rdf:RDF>
</metadata>
  <g
     transform="matrix(1.6474842,0,0,1.6474842,-10.623745,-15.769455)"
     id="g3898">
    <g
       id="g3889"
       style="fill:#000000;fill-opacity:1;stroke:none">
      <path
         d="m 143.82029,182.0194 -0.78163,16.02346 37.22522,-35.17344 -14.06938,0.97704 L 12.017592,20.710096 z"
         id="path3857"
         style="fill:#000000;fill-opacity:1;stroke:none" />
      <path
         d="m 157.49885,307.08052 16.60968,-0.97704 -36.93211,-34.00099 0.34053,13.81216 L 6.448464,449.14214 z"
         id="path3855"
         style="fill:#000000;fill-opacity:1;stroke:none" />
      <path
         d="M 459.79502,55.785832 307.27908,199.2153 l -13.97167,-0.0977 36.7367,33.80558 -0.58622,-15.04641 z"
         id="path3853"
         style="fill:#000000;fill-opacity:1;stroke:none" />
      <path
         d="m 407.71879,9.57184 -149.38941,140.00983 -18.07524,3.12653 37.90915,34.58722 -0.96302,-14.04351 z"
         id="path3851"
         style="fill:#000000;fill-opacity:1;stroke:none" />
      <path
         d="m 58.817808,495.16072 151.929722,-142.55014 15.24182,-0.58622 -37.02981,-33.41477 1.75867,13.09234 z"
         id="path3849"
         style="fill:#000000;fill-opacity:1;stroke:none" />
      <path
         d="m 313.47284,310.42404 a 23.281801,23.558966 0 1 1 -46.5636,0 23.281801,23.558966 0 1 1 46.5636,0 z"
         transform="scale(0.8,0.8)"
         id="path3866"
         style="fill:#000000;fill-opacity:1;stroke:none" />
      <path
         d="M 263.40625,72.46875 C 138.71447,72.46875 37.625,173.29838 37.625,297.6875 c 0,124.38912 101.08947,225.25 225.78125,225.25 38.6673,0 75.0587,-9.72339 106.875,-26.8125 -20.96596,8.49102 -48.59293,6.91599 -72.64113,6.91599 -99.28718,0 -182.91701,-79.78226 -182.91701,-178.1875 0,-98.40524 71.0868,-173.45262 170.37398,-173.45262 99.28718,0 193.89215,79.75101 193.89215,178.15625 0,11.7402 1.97853,24.80566 -0.20799,35.91163 6.75447,-21.38573 10.40625,-44.1697 10.40625,-67.78125 0,-124.38912 -101.08947,-225.21875 -225.78125,-225.21875 z"
         transform="scale(0.8,0.8)"
         id="path3868"
         style="fill:#000000;fill-opacity:1;stroke:none" />
    </g>
  </g>
</svg>
