<?xml version="1.0" encoding="UTF-8" standalone="no"?>
<!-- Created with Inkscape (http://www.inkscape.org/) -->

<svg
   xmlns:dc="http://purl.org/dc/elements/1.1/"
   xmlns:cc="http://creativecommons.org/ns#"
   xmlns:rdf="http://www.w3.org/1999/02/22-rdf-syntax-ns#"
   xmlns:svg="http://www.w3.org/2000/svg"
   xmlns="http://www.w3.org/2000/svg"
   xmlns:sodipodi="http://sodipodi.sourceforge.net/DTD/sodipodi-0.dtd"
   xmlns:inkscape="http://www.inkscape.org/namespaces/inkscape"
   width="2074.0159"
   height="2737.001"
   id="svg4289"
   version="1.1"
   inkscape:version="0.48.3.1 r9886"
   sodipodi:docname="New document 18">
  <defs
     id="defs4291" />
  <sodipodi:namedview
     id="base"
     pagecolor="#ffffff"
     bordercolor="#666666"
     borderopacity="1.0"
     inkscape:pageopacity="0.0"
     inkscape:pageshadow="2"
     inkscape:zoom="0.1"
     inkscape:cx="976.159"
     inkscape:cy="1475.5723"
     inkscape:document-units="px"
     inkscape:current-layer="layer1"
     showgrid="false"
     fit-margin-top="0"
     fit-margin-left="0"
     fit-margin-right="0"
     fit-margin-bottom="0"
     inkscape:window-width="476"
     inkscape:window-height="406"
     inkscape:window-x="1102"
     inkscape:window-y="528"
     inkscape:window-maximized="0" />
  <metadata
     id="metadata4294">
    <rdf:RDF>
      <cc:Work
         rdf:about="">
        <dc:format>image/svg+xml</dc:format>
        <dc:type
           rdf:resource="http://purl.org/dc/dcmitype/StillImage" />
        <dc:title></dc:title>
      </cc:Work>
    </rdf:RDF>
  </metadata>
  <g
     inkscape:label="Layer 1"
     inkscape:groupmode="layer"
     id="layer1"
     transform="translate(2361.159,1259.0663)">
    <g
       transform="translate(10208.768,-1015.2031)"
       id="g4703"
       style="fill:#000000;fill-opacity:1;stroke:none">
      <path
         inkscape:connector-curvature="0"
         id="path3930-0"
         d="m -11575.63,-243.86319 c -549.742,0 -994.297,446.05961 -994.297,995.80163 0,549.74196 444.555,994.29696 994.297,994.29696 347.906,0 653.882,-177.862 831.84,-448.2612 -151.542,155.6529 -365.651,252.711 -604.701,252.711 -458.722,0 -830.336,-357.0148 -830.336,-798.74676 0,-441.73197 371.614,-800.251358 830.336,-800.251358 239.05,0 453.159,98.562038 604.701,254.214958 -177.945,-270.474173 -483.876,-449.76523 -831.84,-449.76523 z"
         style="fill:#000000;fill-opacity:1;stroke:none" />
      <path
         inkscape:connector-curvature="0"
         id="path4048"
         d="m -11855.92,779.138 492.32,6.07797 -139.795,127.63801 -66.858,1580.28372 -109.404,-1568.12778 z"
         style="fill:#000000;fill-opacity:1;stroke:none" />
      <path
         transform="matrix(1.0009454,0,0,1.0009454,9117.1847,7255.2949)"
         d="m -19594.571,-6553.5425 c 0,68.9704 -55.912,124.882 -124.882,124.882 -68.971,0 -124.882,-55.9116 -124.882,-124.882 0,-68.9704 55.911,-124.8819 124.882,-124.8819 68.97,0 124.882,55.9115 124.882,124.8819 z"
         sodipodi:ry="124.88194"
         sodipodi:rx="124.88194"
         sodipodi:cy="-6553.5425"
         sodipodi:cx="-19719.453"
         id="path4215-7-7"
         style="fill:#000000;fill-opacity:1;fill-rule:nonzero;stroke:none"
         sodipodi:type="arc" />
    </g>
  </g>
</svg>
