<svg xmlns="http://www.w3.org/2000/svg" viewBox="0 0 1000 1000"><title>Unknown256</title><path d="M565.72,690.08c-108.52,0-196.5-88.65-196.5-198s88-198,196.5-198c69.28,0,130.14,36.16,165.13,90.74C691.07,304,607.91,248.33,511.72,248.33c-134.83,0-244.12,109.3-244.12,244.13S376.9,736.58,511.72,736.58c97.44,0,181.52-57.11,220.68-139.67C697.67,652.85,636,690.08,565.72,690.08Z"/><circle cx="760.82" cy="485.71" r="42.38"/><path d="M462.22,504.08c33.69,5.53,64.48,5.35,91.5-2.25l-15,19a22.91,22.91,0,0,0-4.89,13.1l-18.4,390.17L483.93,536a25.55,25.55,0,0,0-6.51-15.06Z"/></svg>