<?xml version="1.0" encoding="UTF-8" standalone="no"?>
<!-- Created with Inkscape (http://www.inkscape.org/) -->

<svg
   xmlns:dc="http://purl.org/dc/elements/1.1/"
   xmlns:cc="http://creativecommons.org/ns#"
   xmlns:rdf="http://www.w3.org/1999/02/22-rdf-syntax-ns#"
   xmlns:svg="http://www.w3.org/2000/svg"
   xmlns="http://www.w3.org/2000/svg"
   version="1.0"
   width="1000"
   height="1000"
   viewBox="0 0 800 800"
   id="svg3428">
  <defs
     id="defs3442" />
  <metadata
     id="metadata3430">
Created by potrace 1.9, written by Peter Selinger 2001-2010
<rdf:RDF>
  <cc:Work
     rdf:about="">
    <dc:format>image/svg+xml</dc:format>
    <dc:type
       rdf:resource="http://purl.org/dc/dcmitype/StillImage" />
    <dc:title></dc:title>
  </cc:Work>
</rdf:RDF>
</metadata>
  <g
     transform="matrix(1.7677605,0,0,1.6535759,-12.374324,-11.575031)"
     id="g3983">
    <path
       d="m 233.90838,314.12531 c -14.72656,3.88492 -24.30334,14.90725 -24.30334,28.27861 0,3.25249 0.63243,7.86019 1.44555,10.20921 2.07798,6.14359 9.12505,13.37135 16.44316,16.98523 5.69186,2.80076 6.50498,2.98145 15.99141,2.98145 8.94436,0 10.48026,-0.27104 15.1783,-2.43936 12.37754,-5.87256 18.79218,-15.26865 18.79218,-27.73653 0,-13.82309 -11.38373,-26.01994 -27.1041,-29.00139 -6.50499,-1.17451 -9.39609,-1.08416 -16.44316,0.72278 z"
       id="path3436"
       style="fill:#000000;fill-opacity:1;stroke:none" />
    <path
       d="m 414.96377,486.59773 c -0.63243,0.18069 -1.17451,0.99382 -1.17451,1.71659 0,1.08417 0.36139,1.08417 1.80694,0.36139 2.8911,-1.5359 2.34902,-3.34284 -0.63243,-2.07798 z"
       id="path3438"
       style="fill:#000000;fill-opacity:1;stroke:none" />
    <path
       d="M 275.5,53.4375 C 124.2908,75.570855 8.75,195.54038 8.75,340.21875 8.75,466.02775 96.127232,573.14297 218.34375,613.5 137.9946,561.94878 85.625,477.62653 85.625,382.34375 c 0,-116.35951 78.08573,-216.36902 189.875,-260.3125 l 0,-68.59375 z"
       transform="scale(0.8,0.8)"
       id="path3930"
       style="fill:#000000;fill-opacity:1;stroke:none" />
    <path
       d="M 355.21875,172.75 C 234.14476,172.75 136,254.77776 136,355.96875 c 0,74.67445 53.45572,138.8974 130.125,167.4375 -45.87885,-29.71219 -76.21875,-81.07895 -76.21875,-139.46875 0,-91.93418 75.15937,-166.46875 167.875,-166.46875 92.71563,0 167.875,74.53457 167.875,166.46875 0,55.24426 -27.12565,104.1898 -68.90625,134.46875 C 526.70826,487.79858 574.4375,426.5397 574.4375,355.96875 574.4375,254.77776 476.29274,172.75 355.21875,172.75 z"
       transform="scale(0.8,0.8)"
       id="path3955"
       style="fill:#000000;fill-opacity:1;stroke:none" />
    <path
       d="m 348,428.75 a 44,38 0 1 1 -88,0 44,38 0 1 1 88,0 z"
       transform="scale(0.8,0.8)"
       id="path3979"
       style="fill:#000000;fill-opacity:1;stroke:none" />
    <path
       d="m 108,8.75 -77.5,52.5 45,-8.5 354.5,387 z"
       transform="scale(0.8,0.8)"
       id="path3981"
       style="fill:#000000;fill-opacity:1;stroke:none" />
  </g>
</svg>
