<svg xmlns="http://www.w3.org/2000/svg" viewBox="0 0 1000 1000"><title>Unknown4096</title><circle cx="429.12" cy="502.21" r="42.38"/><path d="M498.4,247.58a244.78,244.78,0,0,0-62.62,8.13v68.85c8-.78,16.12-1.23,24.38-1.23,114.53,0,207.38,77.4,207.38,172.88S574.68,669.08,460.15,669.08c-100,0-183.54-59.07-203.05-137.65,18.83,116.32,119.67,205.15,241.3,205.15,135,0,244.5-109.47,244.5-244.5S633.44,247.58,498.4,247.58Z"/><path d="M380.28,424.58c35-7.48,69.39-10.1,102.75-6L459.64,393.9a14.71,14.71,0,0,1-4-9.06L432,56.33,408.6,383.56a24.76,24.76,0,0,1-5.75,14.17Z"/><path d="M381.78,589.58c29.42,5.22,57.69,5,84.75-.75l-11.09,17.43a32.23,32.23,0,0,0-5,16L438.78,909.83l-31.33-284.9a25.67,25.67,0,0,0-6.59-14.54Z"/></svg>