<svg xmlns="http://www.w3.org/2000/svg" viewBox="0 0 1000 1000"><title>Cadmium</title><path d="M601.63,267.1a200.64,200.64,0,0,1,94.12,170.73c0,110.46-88,200-196.5,200s-196.5-89.54-196.5-200A200.67,200.67,0,0,1,392.42,270c-79.51,40.24-134.17,123.65-134.17,220.07,0,135.72,108.24,245.75,241.75,245.75s241.75-110,241.75-245.75C741.75,391.27,684.35,306.13,601.63,267.1Z"/><circle cx="499.25" cy="258.83" r="42.75"/><path d="M137.25,386.83c3.83,32.56,3.83,68.69,1.5,107a146.67,146.67,0,0,0,27.5-37.5l747.5-41.5-750.5-4C158.93,402.65,148.71,394.71,137.25,386.83Z"/><path d="M452.25,549.33l25.5,16,23,352,14.5-354.5,27.31-13.75A696.52,696.52,0,0,1,452.25,549.33Z"/></svg>