<?xml version="1.0" encoding="UTF-8" standalone="no"?>
<!-- Created with Inkscape (http://www.inkscape.org/) -->

<svg
   xmlns:dc="http://purl.org/dc/elements/1.1/"
   xmlns:cc="http://creativecommons.org/ns#"
   xmlns:rdf="http://www.w3.org/1999/02/22-rdf-syntax-ns#"
   xmlns:svg="http://www.w3.org/2000/svg"
   xmlns="http://www.w3.org/2000/svg"
   version="1.0"
   width="1000"
   height="1144.264"
   viewBox="0 0 800 915.41123"
   id="svg3400">
  <defs
     id="defs3412" />
  <metadata
     id="metadata3402">
Created by potrace 1.9, written by Peter Selinger 2001-2010
<rdf:RDF>
  <cc:Work
     rdf:about="">
    <dc:format>image/svg+xml</dc:format>
    <dc:type
       rdf:resource="http://purl.org/dc/dcmitype/StillImage" />
    <dc:title></dc:title>
  </cc:Work>
</rdf:RDF>
</metadata>
  <g
     transform="matrix(1.7606602,0,0,1.7606602,0,3.0566429e-6)"
     id="g3843">
    <path
       d="m 129.98161,167.27111 c 1.09069,1.09068 56.41806,104.60642 56.41806,105.59795 0,0.39661 0.49577,0.79322 1.09068,0.79322 0.59492,0 0.89238,-0.69407 0.49577,-1.4873 -0.29746,-0.79322 -9.32038,-29.05182 -20.02891,-62.76384 -10.70852,-33.61287 -19.63229,-61.47486 -19.8306,-61.87148 L 129.3867,88.047862 c -0.79323,-0.892377 -14.37719,-45.312921 -14.37719,-46.899369 0,-1.090683 1.09068,-7.733934 2.47883,-14.773797 1.38814,-7.039863 2.28052,-12.989043 2.18136,-13.187349 C 119.4714,12.989041 99.541643,21.21874 75.447464,31.431499 41.239679,46.00699 32.216756,50.171416 33.902357,50.766334 c 1.288989,0.396612 10.311912,2.082213 20.028906,3.767814 9.816147,1.685601 17.84754,3.073743 17.946693,3.272049 0.694071,0.99153 25.383168,47.692593 25.581474,48.287513 z"
       id="path3028"
       style="fill:#000000;fill-opacity:1;stroke:none" />
    <path
       d="M 222.09475,253.03846 224.87103,20.425516 236.07532,-1.7360777e-6 145.25118,8.5271563 179.95473,28.258603 z"
       id="path3406"
       style="fill:#000000;fill-opacity:1;stroke:none" />
    <path
       d="M 224.37925,63.974996 C 100.80089,66.378075 0,167.51367 0,291.925 c 0,125.91829 101.86924,228 227.525,228 119.76564,0 217.91139,-92.72833 226.85,-210.45 -11.94539,90.39953 -89.64287,160.175 -183.7,160.175 -102.32902,0 -185.3,-82.59288 -185.3,-184.475 0,-85.47656 58.92054,-157.86903 138.15784,-178.80784 z"
       id="path3835"
       style="fill:#000000;fill-opacity:1;stroke:none" />
    <path
       d="m 440.13023,132.69215 a 39.3578,38.934597 0 1 1 -78.7156,0 39.3578,38.934597 0 1 1 78.7156,0 z"
       transform="matrix(0.8,0,0,0.8,0.5,-3.4721554e-6)"
       id="path3841"
       style="fill:#000000;fill-opacity:1;stroke:none" />
  </g>
</svg>
