<svg xmlns="http://www.w3.org/2000/svg" viewBox="0 0 1000 1000"><title>Bendalloy</title><circle cx="591.92" cy="535.58" r="42.75"/><path d="M577.19,329.67c14,4.41,28.76,9.57,41.32,16.53a24.94,24.94,0,0,1,10.68,11.63l10.08,22.54a54.84,54.84,0,0,1,27.9-12.3l11.09-43.88a246.39,246.39,0,0,0-176.9-74.37c-135.76,0-245.81,108.79-245.81,243s110.05,243,245.81,243c123.35,0,225.46-89.82,243.1-206.91-17.88,80.13-104,140.91-206.16,140.91-114.94,0-206.81-76.9-206.81-171.75,0-88.87,82.69-174.94,186.94-174.94,20.13,0,39.42.56,57.32,6Z"/><path d="M207.53,506.43l-3.74-87.1,703.5-4.12L242.62,477.48c-5,.47-13.92,4.75-17.4,8.34Z"/><path d="M505.29,195.83c-29.54,3.71-62.51,3.29-97.87,0l22.55,15a13.74,13.74,0,0,1,6.06,10.2l60.64,676.76L494.44,219.3a23.1,23.1,0,0,1,3.81-12.79Z"/></svg>