<?xml version="1.0" encoding="UTF-8" standalone="no"?>
<!-- Created with Inkscape (http://www.inkscape.org/) -->

<svg
   xmlns:dc="http://purl.org/dc/elements/1.1/"
   xmlns:cc="http://creativecommons.org/ns#"
   xmlns:rdf="http://www.w3.org/1999/02/22-rdf-syntax-ns#"
   xmlns:svg="http://www.w3.org/2000/svg"
   xmlns="http://www.w3.org/2000/svg"
   version="1.0"
   width="1000"
   height="1368.4897"
   viewBox="0 0 799.99999 1094.7918"
   id="svg3386">
  <defs
     id="defs3398" />
  <metadata
     id="metadata3388">
Created by potrace 1.9, written by Peter Selinger 2001-2010
<rdf:RDF>
  <cc:Work
     rdf:about="">
    <dc:format>image/svg+xml</dc:format>
    <dc:type
       rdf:resource="http://purl.org/dc/dcmitype/StillImage" />
    <dc:title></dc:title>
  </cc:Work>
</rdf:RDF>
</metadata>
  <g
     transform="matrix(1.8088573,0,0,1.8088573,0,-2.273712e-6)"
     id="g3934">
    <g
       transform="translate(-16.45,-16.0391)"
       id="g3928"
       style="fill:#000000;fill-opacity:1;stroke:none">
      <path
         d="M 272.60457,143.40596 246.14386,239.86908 366.89554,41.315004 c 4.02232,1.368516 15.52564,3.698919 12.73669,0.49367 C 378.44742,40.7226 334.11586,16.0391 333.22725,16.0391 c -0.2962,0 -0.2962,0.592404 0.0987,1.184808 l 3e-5,0 8.29366,11.551878 z"
         id="path3915"
         style="fill:#000000;fill-opacity:1;stroke:none" />
      <path
         d="m 432.55365,86.535176 26.16451,-5.627838 -69.21253,-36.03791 8.39239,24.979702 -230.14895,405.59927 -53.1189,145.83012 z"
         id="path3913"
         style="fill:#000000;fill-opacity:1;stroke:none" />
      <path
         d="M 364.34375,76.96875 340.8125,126.5 c 34.772,16.58954 66.28,41.27291 90.96875,73.40625 C 509.71654,301.34197 490.17055,438.4651 388.125,506.1875 286.07945,573.9099 140.18529,546.59197 62.25,445.15625 41.619169,418.30444 27.809258,388.93595 20.5625,359.03125 32.65248,496.1533 149.44205,603.75 291.75,603.75 442.10118,603.75 564,483.66777 564,335.53125 564,212.1649 479.45449,108.2693 364.34375,76.96875 z"
         transform="scale(0.8,0.8)"
         id="path3917"
         style="fill:#000000;fill-opacity:1;stroke:none" />
      <path
         d="m 272,73.75 a 33,38 0 1 1 -66,0 33,38 0 1 1 66,0 z"
         transform="matrix(0.83667141,0,0,0.72658307,-7.564468,8.2144984)"
         id="path3926"
         style="fill:#000000;fill-opacity:1;stroke:none" />
    </g>
  </g>
</svg>
