<?xml version="1.0" encoding="UTF-8" standalone="no"?>
<!-- Created with Inkscape (http://www.inkscape.org/) -->

<svg
   xmlns:dc="http://purl.org/dc/elements/1.1/"
   xmlns:cc="http://creativecommons.org/ns#"
   xmlns:rdf="http://www.w3.org/1999/02/22-rdf-syntax-ns#"
   xmlns:svg="http://www.w3.org/2000/svg"
   xmlns="http://www.w3.org/2000/svg"
   version="1.0"
   width="1000"
   height="919.039"
   viewBox="0 0 800.00001 735.23121"
   id="svg3330">
  <defs
     id="defs3342" />
  <metadata
     id="metadata3332">
Created by potrace 1.9, written by Peter Selinger 2001-2010
<rdf:RDF>
  <cc:Work
     rdf:about="">
    <dc:format>image/svg+xml</dc:format>
    <dc:type
       rdf:resource="http://purl.org/dc/dcmitype/StillImage" />
    <dc:title></dc:title>
  </cc:Work>
</rdf:RDF>
</metadata>
  <g
     transform="scale(1.8042257,1.8042257)"
     id="g4752">
    <path
       d="m 215.46812,122.76276 -1.5162,-16.37496 -55.99832,46.19356 30.72832,-7.98532 254.7216,262.90908 z"
       id="path4685"
       style="fill:#000000;fill-opacity:1;stroke:none" />
    <path
       d="m 238.71652,3.89268 c -5.054,0.90972 -13.44364,6.87344 -16.77928,11.82636 -7.98532,11.92744 -5.96372,27.19052 4.85184,36.3888 13.24148,11.42204 33.15424,7.98532 42.15036,-7.17668 2.42592,-4.14428 2.72916,-5.76156 2.72916,-13.34256 0,-9.80476 -1.61728,-14.25228 -7.37884,-20.01384 -6.0648,-5.96372 -16.6782,-9.19828 -25.57324,-7.68208 z"
       id="path3338"
       style="fill:#000000;fill-opacity:1;stroke:none" />
    <path
       d="M 119.6,0 C 48.63559,33.083912 0,100.8509 0,179.075 c 0,110.79574 97.57192,200.6 217.95,200.6 120.37808,0 217.975,-89.80426 217.975,-200.6 0,-32.62388 -8.46083,-63.42322 -23.475,-90.65 l -30.675,18.25 c 2.35926,11.71953 3.6,23.8725 3.6,36.325 0,96.99663 -75.28177,175.625 -168.15,175.625 C 124.35677,318.625 49.075,239.99663 49.075,143 49.075,84.031128 76.914856,31.851587 119.6,0 z"
       id="path4703"
       style="fill:#000000;fill-opacity:1;stroke:none" />
    <path
       d="M 137.975,50.05 C 106.80962,74.650056 86.75,113.08794 86.75,156.3 c 0,74.26309 59.2347,134.475 132.3,134.475 73.0653,0 132.3,-60.21191 132.3,-134.475 0,-9.85408 -1.06882,-19.45068 -3.05,-28.7 l -29.65,18.075 c -10.09403,52.03059 -50.85051,90.95 -99.6,90.95 -56.33688,0 -102.025,-51.97748 -102.025,-116.1 0,-26.500248 7.82017,-50.9342 20.95,-70.475 z"
       id="path4726"
       style="fill:#000000;fill-opacity:1;stroke:none" />
  </g>
</svg>
