<?xml version="1.0" encoding="UTF-8" standalone="no"?>
<!-- Created with Inkscape (http://www.inkscape.org/) -->

<svg
   xmlns:dc="http://purl.org/dc/elements/1.1/"
   xmlns:cc="http://creativecommons.org/ns#"
   xmlns:rdf="http://www.w3.org/1999/02/22-rdf-syntax-ns#"
   xmlns:svg="http://www.w3.org/2000/svg"
   xmlns="http://www.w3.org/2000/svg"
   version="1.1"
   width="1973.166"
   height="3493.7356"
   id="svg4423">
  <defs
     id="defs4425" />
  <metadata
     id="metadata4428">
    <rdf:RDF>
      <cc:Work
         rdf:about="">
        <dc:format>image/svg+xml</dc:format>
        <dc:type
           rdf:resource="http://purl.org/dc/dcmitype/StillImage" />
        <dc:title></dc:title>
      </cc:Work>
    </rdf:RDF>
  </metadata>
  <g
     transform="translate(700.869,1280.2199)"
     id="layer1">
    <g
       transform="translate(20411.1,-657.9894)"
       id="g4684"
       style="fill:#000000;fill-opacity:1;stroke:none">
      <path
         d="m -20542.032,465.56328 c 112.057,-20.00352 202.848,-23.87999 325.553,-1.76402 466.388,84.05979 788.202,464.24885 717.936,849.17184 -70.266,384.923 -506.299,629.0733 -972.688,545.0135 -289.265,-52.1355 -521.956,-218.7764 -640.738,-429.2173 120.509,420.4224 507.36,728.7439 966.511,728.7439 555.473,0 1006.655,-451.182 1006.655,-1006.6549 0,-555.47287 -451.182,-1005.11047 -1006.655,-1005.11047 -153.398,0 -255.732,26.86914 -385.546,88.44662 z"
         id="path3969"
         style="fill:#000000;fill-opacity:1;stroke:none" />
      <path
         d="m -20497.919,-622.23051 -61.758,1367.49735 -114.694,105.87114 494.064,0 L -20295,736.44407 z"
         id="path3971"
         style="fill:#000000;fill-opacity:1;stroke:none" />
      <path
         d="m -20639.08,1512.8304 414.661,17.6449 -123.516,123.516 -52.936,1217.5138 -158.806,-1243.9814 z"
         id="path3973"
         style="fill:#000000;fill-opacity:1;stroke:none" />
      <path
         d="m -19594.571,-6553.5425 a 124.88194,124.88194 0 1 1 -249.764,0 124.88194,124.88194 0 1 1 249.764,0 z"
         transform="matrix(1.0009454,0,0,1.0009454,-683.0738,7754.8226)"
         id="path4215-7-45"
         style="fill:#000000;fill-opacity:1;fill-rule:nonzero;stroke:none" />
    </g>
  </g>
</svg>
